<svg id="Layer_1" data-name="Layer 1" xmlns="http://www.w3.org/2000/svg" viewBox="0 0 313.34 35.22"><defs><style>.cls-1{fill:#688ba9;}</style></defs><path class="cls-1" d="M302.56,13.38a1.59,1.59,0,0,1-.34.91,1.47,1.47,0,0,1-.25.25l-.18.12a1.25,1.25,0,0,1-.27.13,2.24,2.24,0,0,1-.46.11l-.44,0H300l-1.13-.06-2.18-.15-4.34-.3h-.11c-13.95-1.06-27.91-1.47-41.92-1.55h-.19c-28.4-.09-56.85.7-85.18,2.64l-.36,0C143,17.07,121.42,19.6,100,22.89l-.23,0c-3.15.49-7,1-10,1.56,1.34.38,2.76.68,4.15.95l.32.06c8.76,1.35,18.24.94,27.43.94h.3c25.75-.36,51.54-1.15,77.28-1.89h.13c6.05-.18,12-.35,18.09-.51,2.95-.07,5.89-.16,8.86-.21h.08c7,0,14,.27,20.92.11h.57c1.19,0,2.36.08,3.53.15a.46.46,0,0,1,.35.16.51.51,0,0,1,.15.36.47.47,0,0,1-.15.35.51.51,0,0,1-.35.17c-1.35.07-2.68.18-4,.28-7,.55-14,.82-21,.94h0c-2.94.09-5.89.21-8.84.32-6.05.23-12,.44-18.09.64h-.12c-25.75.82-51.53,1.66-77.33,2.1h-.3c-9.29,0-18.48.63-28-.76l-.34-.07a37.56,37.56,0,0,1-7-1.88l-.19-.09a5.78,5.78,0,0,1-1.2-.67,2.34,2.34,0,0,1-.87-1.12,2,2,0,0,1,0-1.37,2,2,0,0,1,.54-.79l.2-.17c5.88-1.95,9.62-1.94,14.43-2.81l.23,0c21.51-3.3,43.15-5.83,64.88-7.37l.36,0c28.45-2,56.94-2.65,85.43-2.5h.19c8.47.06,17,.25,25.43.63-19.53-2.47-39.57-1.74-59.45-1.84h-.46c-52.22.3-104.52,1.2-156.72,2.32h-.07c-6.41.15-12.75.25-19.1.38-4.49.11-9,.17-13.55.31s-9,.36-13.41.81A69.06,69.06,0,0,1,6.07,13a1.27,1.27,0,1,1,0-2.54c2.09,0,4.4-.35,6.63-.61,9.14-.94,18.15-1.1,27.19-1.49,6.35-.24,12.7-.44,19.11-.59h.07c52.23-1.12,104.52-2,156.77-2.26h.47c19.94.12,39.85-.56,59.87,2l.56.07c8.19,1.2,16.16,2.3,24.46,4.23l.21.07.17.06.13.07a1.4,1.4,0,0,1,.23.14,1.38,1.38,0,0,1,.47.58A1.42,1.42,0,0,1,302.56,13.38Z"/></svg>