<svg id="Layer_1" data-name="Layer 1" xmlns="http://www.w3.org/2000/svg" viewBox="0 0 176.09 27.13"><defs><style>.cls-1{fill:#fff;}</style></defs><path class="cls-1" d="M77.48,13.61v0s0,0,0,0v0A.08.08,0,0,1,77.48,13.61Z"/><path class="cls-1" d="M8.9,17.43A43.54,43.54,0,0,1,39.82,15C45,16.5,50.24,18.7,55.74,17.8c5-.83,8.78-4.78,13.78-5.74,5.48-1.06,11.6,0,17,1.17a75.54,75.54,0,0,1,8,2.21,45.68,45.68,0,0,0,8.17,2.28c10.21,1.43,19.17-4.82,29.05-5.87,11.64-1.24,23,6,34.58,2.35,1.53-.47.88-2.89-.66-2.41C155.4,15,145,9.21,134.65,9.2c-5.14,0-10.05,1.53-14.87,3.13s-9.65,3.27-14.74,3.1c-5.53-.19-10.74-2.9-16.05-4.19a59.48,59.48,0,0,0-16.73-2,20.26,20.26,0,0,0-7.36,1.68c-2.32,1-4.4,2.55-6.74,3.56-5.42,2.33-11.08.13-16.36-1.5A46.68,46.68,0,0,0,7.64,15.27c-1.45.7-.18,2.86,1.26,2.16Z"/></svg>