<svg id="Layer_1" data-name="Layer 1" xmlns="http://www.w3.org/2000/svg" viewBox="0 0 114.51 105.65"><defs><style>.cls-1{fill:#fff;}.cls-2{fill:#688ba9;}</style></defs><path class="cls-1" d="M99.58,17c-1.87-3.82-5.52-7.22-9.71-8.2-5.49-1.28-11.44-.19-16.53,2.05A29.78,29.78,0,0,0,56.66,31.81a54,54,0,0,0-12.19-10A53.84,53.84,0,0,0,33.1,16.64c-4.46-1.41-9.67-2.11-13.82.59a15.15,15.15,0,0,0-6.47,11.36c-.53,5,1,10,2.82,14.59C19.05,52,24.07,60,29.44,67.66,36,77.1,42.71,86.43,49.36,95.81a3.31,3.31,0,0,0,5.1.65,201.34,201.34,0,0,0,25.26-23c7.35-8.09,13.84-17.07,18-27.22a55.08,55.08,0,0,0,3.79-14.54C102.13,26.76,101.82,21.58,99.58,17ZM95,31.92V32s0,0,0,0h0a.56.56,0,0,1,0,.07c0,.06,0,.13,0,.23l-.12.73c-.08.48-.17,1-.27,1.45-.24,1.22-.53,2.42-.86,3.62a55.8,55.8,0,0,1-2.22,6.41C88,52.94,82.16,61,76,68A189.55,189.55,0,0,1,52.83,89.51Q45.54,79.22,38.26,68.94c-5-7-9.95-14.09-13.81-21.8a59.39,59.39,0,0,1-4.54-11.75c-.94-3.67-1.09-7.59.84-10.63a6.13,6.13,0,0,1,1.34-1.56,1.51,1.51,0,0,1,.47-.36c.13-.08.86-.48.86-.5a9,9,0,0,1,5.48-.12A40.18,40.18,0,0,1,39,26.13,47.38,47.38,0,0,1,56.6,42.39s0,0,0,0l.17.25A3.36,3.36,0,0,0,58,43.83a2.72,2.72,0,0,0,.35.16,3.57,3.57,0,0,0,3.93-1.18.3.3,0,0,0,.07-.1,3.82,3.82,0,0,0,.38-2.55l0-.19c-1.42-8.62,4.1-18.19,11.8-22.43a21.19,21.19,0,0,1,12.9-2.6A7.85,7.85,0,0,1,90,15.8a8.59,8.59,0,0,1,.73.5s.57.47.71.59.55.53.8.81c.09.09.47.56.53.61a13.73,13.73,0,0,1,1.14,1.87l.15.3,0,.08,0,.05h0l0,.06c0,.07,0,.14.06.17.16.43.31.86.43,1.29s.22.83.31,1.24.11.55.15.82,0,.23.05.35a.09.09,0,0,1,0,.05.57.57,0,0,0,0,.12A32.1,32.1,0,0,1,95,31.92Z"/><path class="cls-2" d="M49.85,36l-.09-.06,0,0h0Z"/></svg>