<svg id="Layer_1" data-name="Layer 1" xmlns="http://www.w3.org/2000/svg" viewBox="0 0 114.51 105.65"><defs><style>.cls-1{fill:#688ba9;}</style></defs><path class="cls-1" d="M75.38,36c-1.79-2.45-4.53-3.79-7.57-2.92a14.82,14.82,0,0,0-6.6,4.39,23.26,23.26,0,0,0-4.65,8.64,30.71,30.71,0,0,0-7.07-5.93c-3.73-2.29-10.67-3.89-12.64,1.51-.75,2-.21,4.44.24,6.5a34.59,34.59,0,0,0,2.15,6.47,39.71,39.71,0,0,0,7.91,11.58c3.28,3.4,7.63,7.7,12.8,6.4a13.58,13.58,0,0,0,6-4,50.46,50.46,0,0,0,5-5.85C76.13,55.71,81.33,44.12,75.38,36Z"/></svg>