<svg id="Layer_1" data-name="Layer 1" xmlns="http://www.w3.org/2000/svg" viewBox="0 0 114.51 105.65"><defs><style>.cls-1{fill:#688ba9;}</style></defs><path class="cls-1" d="M75.38,36c-1.8-2.46-4.53-3.8-7.58-2.93a15,15,0,0,0-6.6,4.39,23.19,23.19,0,0,0-4.65,8.64,30.46,30.46,0,0,0-7.07-5.93c-3.72-2.29-10.67-3.89-12.64,1.51-.74,2-.21,4.44.24,6.5a35.11,35.11,0,0,0,2.16,6.47,39.92,39.92,0,0,0,7.9,11.59c3.28,3.4,7.64,7.7,12.81,6.4,2.38-.6,4.29-2.27,6-4a49.72,49.72,0,0,0,5-5.85C76.12,55.71,81.33,44.13,75.38,36ZM72.76,47a31.55,31.55,0,0,1-4.19,10.35,38.38,38.38,0,0,1-7.48,9,4.44,4.44,0,0,1-3.94,1.39c-1.61-.41-3-1.84-4.22-2.92C47.5,60,43.3,53.7,41.83,46.48c-.18-.84-.9-3,.11-3.41,1.39-.58,3.49.5,4.65,1.19a23.65,23.65,0,0,1,8.66,8.57,2.5,2.5,0,0,0,4.42-.27l0,0a2.32,2.32,0,0,0,.56-1.08,29.34,29.34,0,0,1,3.21-8.74,12.42,12.42,0,0,1,3-3.36c1-.76,2.89-2.18,4.15-1.25a7.07,7.07,0,0,1,2.1,4A12,12,0,0,1,72.76,47Z"/></svg>