<svg id="Layer_1" data-name="Layer 1" xmlns="http://www.w3.org/2000/svg" viewBox="0 0 99.41 102.52"><defs><style>.cls-1{fill:#688ba9;}</style></defs><path class="cls-1" d="M89.35,12.71a1.74,1.74,0,0,0-.56-.43,2.65,2.65,0,0,0-.58-.81,14.49,14.49,0,0,0-5.1-3.24,2.54,2.54,0,0,0-2.43.64l-.6.53a2.38,2.38,0,0,0-2.37-1.92,27.59,27.59,0,0,0-8.22,1.2,29.35,29.35,0,0,0-4.17,1.64,14.61,14.61,0,0,0-3.62,2.52L58.35,15.9A32.65,32.65,0,0,0,55,19.06a26.3,26.3,0,0,0-3.88,7.07,2.12,2.12,0,0,0-.36,1,2.25,2.25,0,0,0,.37,1.7,2.29,2.29,0,0,0,.34.46,2.71,2.71,0,0,0,.64.46h0a2.26,2.26,0,0,0,.33.13l.1,0,.14,0h.11a2.35,2.35,0,0,0,1.93-.51l.25-.17c5-3.86,10-7.69,15.2-11.31l-6,5.17L56,30.31l-3.93,3.41c-.64.56-1.39,1.1-2,1.72L49,33.78a1.43,1.43,0,0,0,.13-.28,1.9,1.9,0,0,0,.22-1l-.09-.66a2.52,2.52,0,0,0-.65-1.1c-.45-.51-.91-1-1.39-1.49a2.18,2.18,0,0,0-.45-.35l-.05,0a2.52,2.52,0,0,0-.29-.12h0a2.48,2.48,0,0,0-.35-.13,1.45,1.45,0,0,0-.41-.06l0,0,0-.36a2.48,2.48,0,0,0-.64-1.11c-.24-.22-.49-.43-.74-.64a1.55,1.55,0,0,0-.51-.38,1.76,1.76,0,0,0-.59-.27H43l-.26-.05-.14,0a3.27,3.27,0,0,0-1.07-1.44,53.72,53.72,0,0,0-5-3.4,2.35,2.35,0,0,0-2-.19,2.15,2.15,0,0,0-1.16-1.59A58.22,58.22,0,0,0,26,16a2.09,2.09,0,0,0-2.43.64h0c-3,2.84-6,5.71-9,8.58,1.61-2.22,3.25-4.44,4.91-6.63l.15-.21,0,0,.06-.12a1.18,1.18,0,0,0,.11-.19,2.59,2.59,0,0,0-.8-2.93,2,2,0,0,0-1.53-.53l-.17,0h0a11.75,11.75,0,0,0-5.14,1.68,13.18,13.18,0,0,0-3.58,3.52,16,16,0,0,0-2.6,9.67,2.57,2.57,0,0,0,1.74,2.38,1.7,1.7,0,0,0-.19.19c-1.3,1.38-.79,2.9-.32,4.53a67.76,67.76,0,0,0,3.12,8.36,1.7,1.7,0,0,0,.15.22,3.39,3.39,0,0,0,.17.48,101.32,101.32,0,0,0,6,11.09l.1.12c0,.06.05.12.08.17,1.35,2.16,2.75,4.28,4.18,6.38v0h0q1.31,1.91,2.63,3.8a3.34,3.34,0,0,0,.38.45,1.68,1.68,0,0,0,.2.37l.08.11,0,0q1.82,2.58,3.65,5.15c0,.06.08.1.12.15a.67.67,0,0,1,.06.12l.1.13h0l4.27,6a1.86,1.86,0,0,0,.23.26c0,.08.07.16.12.24l.08.11,0,0,3.66,5.17a3,3,0,0,0,.47.52,1.62,1.62,0,0,0,.22.46c1.08,1.52,2.15,3,3.23,4.55l.06.07a.57.57,0,0,0,.08.13v0l1.75,2.46.06.08a2,2,0,0,0,.33.43,2.27,2.27,0,0,0,1.49.69,2.4,2.4,0,0,0,1.54-.3,2.3,2.3,0,0,0,.43-.34l.07,0A204.53,204.53,0,0,0,71.21,71.82a1.76,1.76,0,0,1,.5-.53A124.05,124.05,0,0,0,80.78,60a2.49,2.49,0,0,0-.64-3.22h0c1.35-.92,2.71-1.84,4.08-2.74a2.39,2.39,0,0,0,1.07-1A73.79,73.79,0,0,0,90.46,41.9a2.53,2.53,0,0,0-1.15-2.83l-.12,0,1.6-1.08a3.63,3.63,0,0,0,1.57-2.59,54.17,54.17,0,0,0,1-6C93.89,23.47,93.13,17.49,89.35,12.71Zm-77.49,22q7-6.8,14.05-13.5c.72.27,1.44.55,2.15.85L13.23,39C12.72,37.58,12.26,36.17,11.86,34.74Zm23.73-8.59.82.53q-5.25,5.09-10.47,10.21c-3.25,3.21-6.54,6.48-9,10.37-.41-.78-.81-1.56-1.19-2.35C22.31,38.58,28.89,32.3,35.59,26.15ZM22.22,56.22c7.58-6.47,15.21-12.88,23-19.15l1.08,1.68Q34.94,48.58,23.62,58.38C23.15,57.67,22.68,57,22.22,56.22ZM87.16,18.53c0,.06.06.14.09.21-.93.4-1.84.81-2.74,1.25l2.43-1.88C87,18.25,87.1,18.38,87.16,18.53ZM56.42,45.27c1.74-1.35,3.48-2.69,5.24-4l-5,4.37Zm-3.94,3.11.36.56L30.54,68.39l-.84-1.2Q40.93,57.59,52.48,48.38ZM42.85,85.75C48.17,81.26,53.53,76.82,59,72.48L43.16,86.2Zm21.6-28-.12-.19c1.75-1.4,3.51-2.8,5.28-4.18Zm24-29.59a1.82,1.82,0,0,0-.47.22c-4.61,2.69-9.13,5.52-13.58,8.44L88.48,24.47A29.61,29.61,0,0,1,88.42,28.12ZM56.34,55.48,45,65.28c-3.45,3-7,6-10.12,9.26l-1.21-1.71C41.17,67,48.69,61.13,56.34,55.48Zm4.09,5.22.2.3q-11,9.54-21.47,19.55c-.27-.37-.53-.75-.8-1.13C45.65,73.1,53,66.82,60.43,60.7Z"/></svg>